<svg width="630" height="630" viewBox="0 0 630 630" fill="none" xmlns="http://www.w3.org/2000/svg">
<circle cx="315" cy="315" r="315" fill="url(#paint0_linear_74_12)"/>
<path fill-rule="evenodd" clip-rule="evenodd" d="M103.007 228.909H503.533L528.103 392.055C528.79 402.331 524.998 412.709 517.727 419.992L462.549 475.768C455.852 482.478 446.773 487.467 437.293 487.467H346.47C326.74 487.467 304.652 469.02 304.652 449.302V448.653C304.652 440.86 310.143 433.556 314.624 427.599L314.904 427.225L196.63 421.452C193.823 421.327 186.827 421.214 178.383 421.115C151.069 420.803 128.045 400.61 124.241 373.557L102.277 234.53C102.414 232.625 102.659 230.749 103.007 228.909ZM208.628 283.059L286.414 303.901C286.429 304.38 286.438 304.863 286.438 305.347C286.438 328.594 267.591 347.441 244.344 347.441C221.096 347.441 202.25 328.594 202.25 305.347C202.25 297.161 204.586 289.521 208.628 283.059ZM342.589 303.836L420.336 283.004C424.4 289.479 426.75 297.139 426.75 305.347C426.75 328.594 407.903 347.441 384.656 347.441C361.408 347.441 342.563 328.594 342.563 305.347C342.563 304.841 342.571 304.337 342.589 303.836Z" fill="white"/>
<path fill-rule="evenodd" clip-rule="evenodd" d="M494.561 205.092C494.899 207.047 495.782 208.855 496.932 210.471C500.709 215.78 503.041 222.003 503.485 228.581L505.184 239.866C506.207 246.655 500.949 252.762 494.084 252.762H114.749C109.226 252.762 104.523 248.744 103.662 243.289L102.479 235.8C102.345 234.957 102.303 234.097 102.387 233.246C104.631 210.296 122.699 191.967 145.744 189.493L212.333 178.857C216.25 178.231 220.206 179.719 222.74 182.771L238.613 201.89C241.144 204.937 245.092 206.426 249.006 205.806L375.755 185.731C378.835 185.243 381.573 183.497 383.313 180.91L402.726 152.06C404.463 149.477 407.195 147.733 410.268 147.242L437.469 142.897C462.787 140.19 485.936 157.402 490.625 182.421L494.561 205.092Z" fill="white"/>
<defs>
<linearGradient id="paint0_linear_74_12" x1="535.339" y1="51.3237" x2="96.9858" y2="579.244" gradientUnits="userSpaceOnUse">
<stop stop-color="#E2556E"/>
<stop offset="1" stop-color="#982525"/>
</linearGradient>
</defs>
</svg>
