<svg width="1581" height="400" viewBox="0 0 1581 400" fill="none" xmlns="http://www.w3.org/2000/svg">
<path fill-rule="evenodd" clip-rule="evenodd" d="M11.5873 123.75H368.404L390.293 269.091C390.904 278.246 387.526 287.491 381.049 293.98L331.893 343.669C325.926 349.646 317.838 354.091 309.393 354.091H228.481C210.904 354.091 191.226 337.658 191.226 320.091V319.513C191.226 312.57 196.119 306.064 200.11 300.756L200.36 300.424L94.9931 295.28C92.4931 295.169 86.2597 295.069 78.7374 294.98C54.4042 294.703 33.8931 276.713 30.5042 252.613L10.9375 128.757C11.0589 127.06 11.2773 125.389 11.5873 123.75ZM105.682 171.99L174.979 190.558C174.993 190.985 175 191.415 175 191.846C175 212.556 158.21 229.346 137.5 229.346C116.789 229.346 100 212.556 100 191.846C100 184.554 102.081 177.747 105.682 171.99ZM225.024 190.5L294.286 171.941C297.906 177.71 300 184.534 300 191.846C300 212.556 283.21 229.346 262.5 229.346C241.789 229.346 225 212.556 225 191.846C225 191.395 225.008 190.946 225.024 190.5Z" fill="white"/>
<path fill-rule="evenodd" clip-rule="evenodd" d="M360.41 102.532C360.711 104.273 361.498 105.884 362.523 107.324C365.888 112.053 367.965 117.597 368.36 123.457L369.874 133.511C370.785 139.559 366.101 145 359.985 145H22.0477C17.1272 145 12.938 141.42 12.1702 136.56L11.1162 129.889C10.9974 129.137 10.9602 128.371 11.0342 127.614C13.0338 107.168 29.1298 90.8388 49.6597 88.6352L108.982 79.16C112.471 78.6026 115.996 79.9282 118.253 82.6468L132.394 99.6788C134.649 102.394 138.166 103.72 141.652 103.168L254.57 85.2833C257.314 84.849 259.752 83.2933 261.302 80.9891L278.597 55.287C280.145 52.9865 282.579 51.4321 285.316 50.9947L309.549 47.1242C332.104 44.7131 352.726 60.0463 356.904 82.3353L360.41 102.532Z" fill="white"/>
<path d="M572.784 173.6C572.784 181.067 570.984 188.067 567.384 194.6C563.917 201.133 558.384 206.4 550.784 210.4C543.317 214.4 533.85 216.4 522.384 216.4H498.984V270H470.984V130.4H522.384C533.184 130.4 542.384 132.267 549.984 136C557.584 139.733 563.25 144.867 566.984 151.4C570.85 157.933 572.784 165.333 572.784 173.6ZM521.184 193.8C528.917 193.8 534.65 192.067 538.384 188.6C542.117 185 543.984 180 543.984 173.6C543.984 160 536.384 153.2 521.184 153.2H498.984V193.8H521.184ZM620.663 122V270H592.663V122H620.663ZM752.927 159.2V270H724.727V256C721.127 260.8 716.394 264.6 710.527 267.4C704.794 270.067 698.527 271.4 691.727 271.4C683.061 271.4 675.394 269.6 668.727 266C662.061 262.267 656.794 256.867 652.927 249.8C649.194 242.6 647.327 234.067 647.327 224.2V159.2H675.327V220.2C675.327 229 677.527 235.8 681.927 240.6C686.327 245.267 692.327 247.6 699.927 247.6C707.661 247.6 713.727 245.267 718.127 240.6C722.527 235.8 724.727 229 724.727 220.2V159.2H752.927ZM823.954 157.4C832.221 157.4 839.487 159.067 845.754 162.4C852.021 165.6 856.954 169.8 860.554 175V159.2H888.754V270.8C888.754 281.067 886.687 290.2 882.554 298.2C878.421 306.333 872.221 312.733 863.954 317.4C855.687 322.2 845.687 324.6 833.954 324.6C818.221 324.6 805.287 320.933 795.154 313.6C785.154 306.267 779.487 296.267 778.154 283.6H805.954C807.421 288.667 810.554 292.667 815.354 295.6C820.287 298.667 826.221 300.2 833.154 300.2C841.287 300.2 847.887 297.733 852.954 292.8C858.021 288 860.554 280.667 860.554 270.8V253.6C856.954 258.8 851.954 263.133 845.554 266.6C839.287 270.067 832.087 271.8 823.954 271.8C814.621 271.8 806.087 269.4 798.354 264.6C790.621 259.8 784.487 253.067 779.954 244.4C775.554 235.6 773.354 225.533 773.354 214.2C773.354 203 775.554 193.067 779.954 184.4C784.487 175.733 790.554 169.067 798.154 164.4C805.887 159.733 814.487 157.4 823.954 157.4ZM860.554 214.6C860.554 207.8 859.221 202 856.554 197.2C853.887 192.267 850.287 188.533 845.754 186C841.221 183.333 836.354 182 831.154 182C825.954 182 821.154 183.267 816.754 185.8C812.354 188.333 808.754 192.067 805.954 197C803.287 201.8 801.954 207.533 801.954 214.2C801.954 220.867 803.287 226.733 805.954 231.8C808.754 236.733 812.354 240.533 816.754 243.2C821.287 245.867 826.087 247.2 831.154 247.2C836.354 247.2 841.221 245.933 845.754 243.4C850.287 240.733 853.887 237 856.554 232.2C859.221 227.267 860.554 221.4 860.554 214.6ZM930.301 146C925.367 146 921.234 144.467 917.901 141.4C914.701 138.2 913.101 134.267 913.101 129.6C913.101 124.933 914.701 121.067 917.901 118C921.234 114.8 925.367 113.2 930.301 113.2C935.234 113.2 939.301 114.8 942.501 118C945.834 121.067 947.501 124.933 947.501 129.6C947.501 134.267 945.834 138.2 942.501 141.4C939.301 144.467 935.234 146 930.301 146ZM944.101 159.2V270H916.101V159.2H944.101ZM1033.16 157.6C1046.36 157.6 1057.03 161.8 1065.16 170.2C1073.3 178.467 1077.36 190.067 1077.36 205V270H1049.36V208.8C1049.36 200 1047.16 193.267 1042.76 188.6C1038.36 183.8 1032.36 181.4 1024.76 181.4C1017.03 181.4 1010.9 183.8 1006.36 188.6C1001.96 193.267 999.765 200 999.765 208.8V270H971.765V159.2H999.765V173C1003.5 168.2 1008.23 164.467 1013.96 161.8C1019.83 159 1026.23 157.6 1033.16 157.6ZM1146.39 271.8C1137.32 271.8 1129.19 270.2 1121.99 267C1114.79 263.667 1109.06 259.2 1104.79 253.6C1100.66 248 1098.39 241.8 1097.99 235H1126.19C1126.72 239.267 1128.79 242.8 1132.39 245.6C1136.12 248.4 1140.72 249.8 1146.19 249.8C1151.52 249.8 1155.66 248.733 1158.59 246.6C1161.66 244.467 1163.19 241.733 1163.19 238.4C1163.19 234.8 1161.32 232.133 1157.59 230.4C1153.99 228.533 1148.19 226.533 1140.19 224.4C1131.92 222.4 1125.12 220.333 1119.79 218.2C1114.59 216.067 1110.06 212.8 1106.19 208.4C1102.46 204 1100.59 198.067 1100.59 190.6C1100.59 184.467 1102.32 178.867 1105.79 173.8C1109.39 168.733 1114.46 164.733 1120.99 161.8C1127.66 158.867 1135.46 157.4 1144.39 157.4C1157.59 157.4 1168.12 160.733 1175.99 167.4C1183.86 173.933 1188.19 182.8 1188.99 194H1162.19C1161.79 189.6 1159.92 186.133 1156.59 183.6C1153.39 180.933 1149.06 179.6 1143.59 179.6C1138.52 179.6 1134.59 180.533 1131.79 182.4C1129.12 184.267 1127.79 186.867 1127.79 190.2C1127.79 193.933 1129.66 196.8 1133.39 198.8C1137.12 200.667 1142.92 202.6 1150.79 204.6C1158.79 206.6 1165.39 208.667 1170.59 210.8C1175.79 212.933 1180.26 216.267 1183.99 220.8C1187.86 225.2 1189.86 231.067 1189.99 238.4C1189.99 244.8 1188.19 250.533 1184.59 255.6C1181.12 260.667 1176.06 264.667 1169.39 267.6C1162.86 270.4 1155.19 271.8 1146.39 271.8ZM1288.63 247.8H1334.63V270H1260.63V130.4H1288.63V247.8ZM1366.63 146C1361.7 146 1357.56 144.467 1354.23 141.4C1351.03 138.2 1349.43 134.267 1349.43 129.6C1349.43 124.933 1351.03 121.067 1354.23 118C1357.56 114.8 1361.7 113.2 1366.63 113.2C1371.56 113.2 1375.63 114.8 1378.83 118C1382.16 121.067 1383.83 124.933 1383.83 129.6C1383.83 134.267 1382.16 138.2 1378.83 141.4C1375.63 144.467 1371.56 146 1366.63 146ZM1380.43 159.2V270H1352.43V159.2H1380.43ZM1450.49 271.8C1441.43 271.8 1433.29 270.2 1426.09 267C1418.89 263.667 1413.16 259.2 1408.89 253.6C1404.76 248 1402.49 241.8 1402.09 235H1430.29C1430.83 239.267 1432.89 242.8 1436.49 245.6C1440.23 248.4 1444.83 249.8 1450.29 249.8C1455.63 249.8 1459.76 248.733 1462.69 246.6C1465.76 244.467 1467.29 241.733 1467.29 238.4C1467.29 234.8 1465.43 232.133 1461.69 230.4C1458.09 228.533 1452.29 226.533 1444.29 224.4C1436.03 222.4 1429.23 220.333 1423.89 218.2C1418.69 216.067 1414.16 212.8 1410.29 208.4C1406.56 204 1404.69 198.067 1404.69 190.6C1404.69 184.467 1406.43 178.867 1409.89 173.8C1413.49 168.733 1418.56 164.733 1425.09 161.8C1431.76 158.867 1439.56 157.4 1448.49 157.4C1461.69 157.4 1472.23 160.733 1480.09 167.4C1487.96 173.933 1492.29 182.8 1493.09 194H1466.29C1465.89 189.6 1464.03 186.133 1460.69 183.6C1457.49 180.933 1453.16 179.6 1447.69 179.6C1442.63 179.6 1438.69 180.533 1435.89 182.4C1433.23 184.267 1431.89 186.867 1431.89 190.2C1431.89 193.933 1433.76 196.8 1437.49 198.8C1441.23 200.667 1447.03 202.6 1454.89 204.6C1462.89 206.6 1469.49 208.667 1474.69 210.8C1479.89 212.933 1484.36 216.267 1488.09 220.8C1491.96 225.2 1493.96 231.067 1494.09 238.4C1494.09 244.8 1492.29 250.533 1488.69 255.6C1485.23 260.667 1480.16 264.667 1473.49 267.6C1466.96 270.4 1459.29 271.8 1450.49 271.8ZM1549.68 182.2V235.8C1549.68 239.533 1550.54 242.267 1552.28 244C1554.14 245.6 1557.21 246.4 1561.48 246.4H1574.48V270H1556.88C1533.28 270 1521.48 258.533 1521.48 235.6V182.2H1508.28V159.2H1521.48V131.8H1549.68V159.2H1574.48V182.2H1549.68Z" fill="white"/>
</svg>
