<svg width="774" height="774" viewBox="0 0 774 774" fill="none" xmlns="http://www.w3.org/2000/svg">
<g clip-path="url(#clip0_68_126)">
<path fill-rule="evenodd" clip-rule="evenodd" d="M50.5059 357.851H612.492L646.967 586.763C647.929 601.182 642.61 615.743 632.408 625.963L554.987 704.223C545.59 713.637 532.85 720.638 519.549 720.638H392.114C364.429 720.638 333.437 694.755 333.437 667.088V666.177C333.437 655.242 341.143 644.995 347.429 636.635L347.823 636.112L181.87 628.01C177.932 627.835 168.115 627.678 156.267 627.538C117.942 627.101 85.6375 598.767 80.3 560.809L49.4824 365.737C49.6736 363.064 50.0176 360.432 50.5059 357.851ZM198.706 433.829L307.848 463.072C307.869 463.746 307.881 464.423 307.881 465.102C307.881 497.72 281.437 524.165 248.818 524.165C216.199 524.165 189.756 497.72 189.756 465.102C189.756 453.617 193.034 442.897 198.706 433.829ZM386.668 462.982L495.757 433.752C501.458 442.838 504.756 453.585 504.756 465.102C504.756 497.72 478.312 524.165 445.693 524.165C413.073 524.165 386.631 497.72 386.631 465.102C386.631 464.391 386.643 463.685 386.668 462.982Z" fill="white"/>
<path fill-rule="evenodd" clip-rule="evenodd" d="M599.901 324.433C600.376 327.175 601.614 329.712 603.228 331.98C608.528 339.428 611.8 348.16 612.422 357.39L614.806 373.224C616.242 382.749 608.865 391.319 599.232 391.319H66.9805C59.2307 391.319 52.6327 385.681 51.4234 378.026L49.7634 367.519C49.5763 366.336 49.5176 365.129 49.6343 363.936C52.7837 331.734 78.1349 306.016 110.469 302.545L203.902 287.621C209.398 286.743 214.949 288.831 218.504 293.113L240.775 319.939C244.327 324.215 249.867 326.303 255.358 325.434L433.203 297.266C437.524 296.581 441.366 294.131 443.807 290.502L471.046 250.021C473.484 246.398 477.317 243.95 481.628 243.261L519.795 237.165C555.319 233.367 587.799 257.517 594.379 292.622L599.901 324.433Z" fill="white"/>
<path d="M656.073 106.38C669.853 106.985 681.737 108.045 691.303 109.548C700.855 111.048 708.14 112.996 712.689 115.399C714.962 116.6 716.606 117.942 717.485 119.451C718.383 120.991 718.457 122.658 717.677 124.395C716.91 126.103 715.326 127.866 712.944 129.69C710.556 131.52 707.328 133.44 703.218 135.45C637.922 167.387 616.269 219.201 617.074 266.451C617.477 290.089 623.502 312.589 632.507 330.889C641.518 349.198 653.487 363.254 665.741 370.062C666.53 370.501 667.164 370.921 667.635 371.323C668.099 371.719 668.448 372.133 668.601 372.573C668.767 373.054 668.684 373.521 668.374 373.916C668.09 374.279 667.635 374.557 667.091 374.781C665.996 375.232 664.309 375.556 662.114 375.78C659.907 376.005 657.143 376.131 653.869 376.167C640.778 376.312 619.385 375.012 592.349 372.681C538.265 368.018 461.519 359.223 383.232 349.569C304.944 339.915 225.109 329.402 164.847 321.302C134.716 317.252 109.478 313.806 91.7728 311.372C82.9201 310.155 75.9498 309.191 71.1933 308.531C68.8153 308.202 66.9905 307.947 65.7601 307.776C65.145 307.69 64.6783 307.626 64.3655 307.582C64.2092 307.56 64.0912 307.543 64.0123 307.532C63.973 307.527 63.9431 307.523 63.9233 307.52C63.9136 307.518 63.906 307.517 63.9011 307.516C63.8964 307.516 63.8954 307.504 63.963 307.02L63.8943 307.516L63.4985 307.46L63.4647 307.062C61.3613 282.01 71.9144 259.535 91.6415 239.535C111.361 219.542 140.275 201.992 174.982 186.751C244.399 156.269 337.129 134.969 426.256 121.894C515.386 108.818 600.957 103.961 656.073 106.38Z" fill="#CD0E0E" stroke="black"/>
<g filter="url(#filter0_d_68_126)">
<path d="M8.09217 303.424C9.8969 282.796 27.227 266.941 47.9338 266.996C279.368 267.604 420.695 279.562 640.639 318.697C660.947 322.311 675.14 340.887 673.342 361.436L669.484 405.533C667.446 428.827 645.906 445.392 622.835 441.582C405.402 405.668 265.552 393.137 43.9804 390.895C20.5814 390.659 2.21535 370.597 4.25482 347.286L8.09217 303.424Z" fill="#D9D9D9"/>
<path d="M8.09217 303.424C9.8969 282.796 27.227 266.941 47.9338 266.996C279.368 267.604 420.695 279.562 640.639 318.697C660.947 322.311 675.14 340.887 673.342 361.436L669.484 405.533C667.446 428.827 645.906 445.392 622.835 441.582C405.402 405.668 265.552 393.137 43.9804 390.895C20.5814 390.659 2.21535 370.597 4.25482 347.286L8.09217 303.424Z" stroke="#A2A2A2"/>
</g>
<g filter="url(#filter1_d_68_126)">
<ellipse cx="689.213" cy="125.077" rx="77.528" ry="77.544" transform="rotate(6 689.213 125.077)" fill="#D9D9D9"/>
<ellipse cx="689.213" cy="125.077" rx="77.528" ry="77.544" transform="rotate(6 689.213 125.077)" stroke="#A2A2A2"/>
</g>
</g>
<defs>
<filter id="filter0_d_68_126" x="-13.9004" y="257.995" width="705.396" height="211.133" filterUnits="userSpaceOnUse" color-interpolation-filters="sRGB">
<feFlood flood-opacity="0" result="BackgroundImageFix"/>
<feColorMatrix in="SourceAlpha" type="matrix" values="0 0 0 0 0 0 0 0 0 0 0 0 0 0 0 0 0 0 127 0" result="hardAlpha"/>
<feOffset dy="9"/>
<feGaussianBlur stdDeviation="8.75"/>
<feComposite in2="hardAlpha" operator="out"/>
<feColorMatrix type="matrix" values="0 0 0 0 0 0 0 0 0 0 0 0 0 0 0 0 0 0 0.25 0"/>
<feBlend mode="normal" in2="BackgroundImageFix" result="effect1_dropShadow_68_126"/>
<feBlend mode="normal" in="SourceGraphic" in2="effect1_dropShadow_68_126" result="shape"/>
</filter>
<filter id="filter1_d_68_126" x="581.278" y="33.1264" width="197.868" height="197.901" filterUnits="userSpaceOnUse" color-interpolation-filters="sRGB">
<feFlood flood-opacity="0" result="BackgroundImageFix"/>
<feColorMatrix in="SourceAlpha" type="matrix" values="0 0 0 0 0 0 0 0 0 0 0 0 0 0 0 0 0 0 127 0" result="hardAlpha"/>
<feMorphology radius="3" operator="dilate" in="SourceAlpha" result="effect1_dropShadow_68_126"/>
<feOffset dx="-9" dy="7"/>
<feGaussianBlur stdDeviation="8.95"/>
<feComposite in2="hardAlpha" operator="out"/>
<feColorMatrix type="matrix" values="0 0 0 0 0 0 0 0 0 0 0 0 0 0 0 0 0 0 0.25 0"/>
<feBlend mode="normal" in2="BackgroundImageFix" result="effect1_dropShadow_68_126"/>
<feBlend mode="normal" in="SourceGraphic" in2="effect1_dropShadow_68_126" result="shape"/>
</filter>
<clipPath id="clip0_68_126">
<rect width="774" height="774" fill="white"/>
</clipPath>
</defs>
</svg>
